<svg xmlns="http://www.w3.org/2000/svg" viewBox="0 0 900 600">
  <rect width="900" height="600" fill="#012169"/>
  <g fill="white">
    <polygon points="0,0 0,600 300,300"/>
    <polygon points="900,0 600,300 900,600"/>
    <polygon points="0,0 300,300 900,0"/>
    <polygon points="0,600 300,300 900,600"/>
  </g>
  <g fill="#C8102E">
    <polygon points="0,0 0,600 150,300"/>
    <polygon points="900,0 750,300 900,600"/>
    <polygon points="0,0 150,300 900,0"/>
    <polygon points="0,600 150,300 900,600"/>
  </g>
  <rect x="375" y="0" width="150" height="600" fill="white"/>
  <rect x="0" y="225" width="900" height="150" fill="white"/>
  <rect x="400" y="0" width="100" height="600" fill="#C8102E"/>
  <rect x="0" y="250" width="900" height="100" fill="#C8102E"/>
</svg>